HIERARCHY
ROOT joint_Root
{
	OFFSET 0.0 0.0 0.0
	CHANNELS 6 Xposition Yposition Zposition Zrotation Xrotation Yrotation 
	JOINT Hips
	{
		OFFSET -0.726466 93.3139 -2.00062
		CHANNELS 6 Xposition Yposition Zposition Zrotation Xrotation Yrotation 
		JOINT Spine
		{
			OFFSET 15.7357 0.0 0.0
			CHANNELS 6 Xposition Yposition Zposition Zrotation Xrotation Yrotation 
			JOINT Chest
			{
				OFFSET 8.98455 -0.406207 0.0
				CHANNELS 6 Xposition Yposition Zposition Zrotation Xrotation Yrotation 
				JOINT Neck
				{
					OFFSET 16.3773 0.0 0.0
					CHANNELS 6 Xposition Yposition Zposition Zrotation Xrotation Yrotation 
					JOINT Head
					{
						OFFSET 6.45672 0.0 0.0
						CHANNELS 6 Xposition Yposition Zposition Zrotation Xrotation Yrotation 
						End Site
						{
							OFFSET 0.0 0.0 0.0
						}
					}
				}
				JOINT Shoulder_L
				{
					OFFSET 12.9942 -0.242716 4.98039
					CHANNELS 6 Xposition Yposition Zposition Zrotation Xrotation Yrotation 
					JOINT UpperArm_L
					{
						OFFSET 5.34809 0.0 0.0
						CHANNELS 6 Xposition Yposition Zposition Zrotation Xrotation Yrotation 
						JOINT LowerArm_L
						{
							OFFSET 24.3286 1.87007e-05 0.0
							CHANNELS 6 Xposition Yposition Zposition Zrotation Xrotation Yrotation 
							JOINT Hand_L
							{
								OFFSET 22.2916 0.0 0.0
								CHANNELS 6 Xposition Yposition Zposition Zrotation Xrotation Yrotation 
								End Site
								{
									OFFSET 0.0 0.0 0.0
								}
							}
						}
					}
				}
				JOINT Shoulder_R
				{
					OFFSET 12.9945 -0.242716 -4.98039
					CHANNELS 6 Xposition Yposition Zposition Zrotation Xrotation Yrotation 
					JOINT UpperArm_R
					{
						OFFSET -5.34813 0.0 0.0
						CHANNELS 6 Xposition Yposition Zposition Zrotation Xrotation Yrotation 
						JOINT LowerArm_R
						{
							OFFSET -24.3289 0.000322201 0.0
							CHANNELS 6 Xposition Yposition Zposition Zrotation Xrotation Yrotation 
							JOINT Hand_R
							{
								OFFSET -22.2915 -0.000108084 0.0
								CHANNELS 6 Xposition Yposition Zposition Zrotation Xrotation Yrotation 
								End Site
								{
									OFFSET 0.0 0.0 0.0
								}
							}
						}
					}
				}
			}
		}
		JOINT UpperLeg_L
		{
			OFFSET -2.19248 -6.46944 0.0
			CHANNELS 6 Xposition Yposition Zposition Zrotation Xrotation Yrotation 
			JOINT LowerLeg_L
			{
				OFFSET 39.0811 0.0 -1.23785e-05
				CHANNELS 6 Xposition Yposition Zposition Zrotation Xrotation Yrotation 
				JOINT Foot_L
				{
					OFFSET 40.9854 0.0 -1.26872e-05
					CHANNELS 6 Xposition Yposition Zposition Zrotation Xrotation Yrotation 
					JOINT Toes_L
					{
						OFFSET 11.7543 0.0 0.0
						CHANNELS 6 Xposition Yposition Zposition Zrotation Xrotation Yrotation 
						End Site
						{
							OFFSET 0.0 0.0 0.0
						}
					}
				}
			}
		}
		JOINT UpperLeg_R
		{
			OFFSET -2.19251 6.46944 0.0
			CHANNELS 6 Xposition Yposition Zposition Zrotation Xrotation Yrotation 
			JOINT LowerLeg_R
			{
				OFFSET -39.0811 -0.00228153 -0.0401928
				CHANNELS 6 Xposition Yposition Zposition Zrotation Xrotation Yrotation 
				JOINT Foot_R
				{
					OFFSET -40.9854 0.0 0.0
					CHANNELS 6 Xposition Yposition Zposition Zrotation Xrotation Yrotation 
					JOINT Toes_R
					{
						OFFSET -11.7543 0.0 0.0
						CHANNELS 6 Xposition Yposition Zposition Zrotation Xrotation Yrotation 
						End Site
						{
							OFFSET 0.0 0.0 0.0
						}
					}
				}
			}
		}
	}
}
MOTION
Frames:	6
Frame Time:	0.0333333
0.000000 0.000000 0.000000 0.000000 0.000000 -0.000000 -1.156350 92.179400 0.231662 88.074800 -0.921007 4.611570 15.735700 0.000005 -0.000001 88.106700 85.233900 -87.673600 8.984550 -0.406207 -0.000000 1.762400 -0.337429 0.870677 16.377300 -0.000001 -0.000001 4.894040 -3.093680 1.357400 6.456720 -0.000001 -0.000000 1.701990 -2.216620 -0.754380 12.994200 -0.242716 4.980390 -90.010200 0.033028 -72.790400 5.348090 -0.000007 -0.000001 -67.941000 40.271700 -13.095600 24.328600 0.000019 0.000005 0.421952 0.987352 -23.139000 22.291600 -0.000001 0.000005 5.305140 5.487730 -6.046880 12.994500 -0.242716 -4.980390 87.623000 6.961320 -71.094100 -5.348130 -0.000001 -0.000004 -66.922400 35.996800 -14.833100 -24.328900 0.000322 -0.000009 2.542270 7.727640 -18.279100 -22.291500 -0.000108 -0.000004 5.655910 5.294230 0.238956 -2.192480 -6.469440 -0.000000 -175.208000 -5.549480 -1.410120 39.081100 -0.000007 -0.000012 -0.123531 0.291270 22.982500 40.985400 -0.000006 -0.000013 -0.756810 2.569970 -67.135100 11.754300 -0.000000 0.000003 -0.000046 -0.000531 -16.598200 -2.192510 6.469440 -0.000001 179.753000 13.145500 -179.381000 -39.081100 -0.002282 -0.040193 -0.016903 0.055117 20.149600 -40.985400 0.000008 0.000006 4.298170 7.137180 -66.774200 -11.754300 -0.000006 -0.000006 -0.007984 -0.087903 -20.152500
0.000000 0.000000 0.000000 0.000000 0.000000 -0.000000 -1.126740 92.193800 0.179590 88.109600 -0.932156 4.473850 15.735700 0.000005 -0.000001 87.953000 85.288200 -87.513300 8.984550 -0.406207 -0.000000 1.653180 -0.359865 0.883833 16.377300 -0.000001 -0.000001 4.708280 -2.790480 1.095070 6.456720 -0.000001 -0.000000 1.448510 -1.696830 -1.671950 12.994200 -0.242716 4.980390 -90.014700 0.047496 -72.798300 5.348090 -0.000007 -0.000001 -68.040500 40.161900 -13.034300 24.328600 0.000019 0.000005 0.434007 1.013340 -23.184300 22.291600 -0.000001 0.000005 5.252710 5.487810 -6.050100 12.994500 -0.242716 -4.980390 87.634400 6.877310 -70.965700 -5.348130 -0.000001 -0.000004 -66.458800 33.648900 -15.450400 -24.328900 0.000322 -0.000009 3.286990 8.902170 -20.365400 -22.291500 -0.000108 -0.000004 2.785030 5.274370 0.778448 -2.192480 -6.469440 -0.000000 -175.297000 -5.499160 -1.539810 39.081100 -0.000007 -0.000012 -0.120801 0.286038 22.895600 40.985400 -0.000006 -0.000013 -0.744183 2.506460 -67.061200 11.754300 -0.000000 0.000003 -0.000048 -0.000544 -16.598700 -2.192510 6.469440 -0.000001 179.715000 13.164700 -179.546000 -39.081100 -0.002282 -0.040193 -0.020854 0.066043 20.105500 -40.985400 0.000008 0.000006 4.192790 7.200820 -66.690100 -11.754300 -0.000006 -0.000006 -0.008022 -0.088216 -20.165300
0.000000 0.000000 0.000000 0.000000 0.000000 -0.000000 -1.092850 92.219900 0.117022 88.090600 -1.076990 4.315970 15.735700 0.000005 -0.000001 87.773900 85.344500 -87.304900 8.984550 -0.406207 -0.000000 1.539730 -0.386957 0.942405 16.377300 -0.000001 -0.000001 4.534450 -2.369040 0.700550 6.456720 -0.000001 -0.000000 1.095950 -0.975949 -2.777380 12.994200 -0.242716 4.980390 -90.026600 0.085616 -72.745800 5.348090 -0.000007 -0.000001 -68.189000 39.976300 -12.945800 24.328600 0.000019 0.000005 0.468766 1.096330 -23.150200 22.291600 -0.000001 0.000005 5.220970 5.488680 -6.083910 12.994500 -0.242716 -4.980390 87.609400 6.853200 -70.716900 -5.348130 -0.000001 -0.000004 -65.463200 30.285400 -16.825400 -24.328900 0.000322 -0.000009 3.520650 8.096780 -23.608600 -22.291500 -0.000108 -0.000004 1.661860 5.293290 0.260500 -2.192480 -6.469440 -0.000000 -175.301000 -5.710110 -1.667810 39.081100 -0.000007 -0.000012 -0.119253 0.284032 22.775600 40.985400 -0.000006 -0.000013 -0.711448 2.549300 -66.960200 11.754300 -0.000000 0.000003 -0.000049 -0.000555 -16.599100 -2.192510 6.469440 -0.000001 179.792000 13.037700 -179.711000 -39.081100 -0.002282 -0.040193 -0.016234 0.053781 19.981700 -40.985400 0.000008 0.000006 4.305110 7.185490 -66.582300 -11.754300 -0.000006 -0.000006 -0.008141 -0.089178 -20.204600
0.000000 0.000000 0.000000 0.000000 0.000000 -0.000000 -1.032150 92.239100 0.002704 88.075700 -1.353160 4.175100 15.735700 0.000005 -0.000001 87.701600 85.399700 -87.211200 8.984550 -0.406207 -0.000000 1.429040 -0.395905 0.984848 16.377300 -0.000001 -0.000001 4.482950 -1.882130 0.306356 6.456720 -0.000001 -0.000000 0.698396 -0.173813 -3.923950 12.994200 -0.242716 4.980390 -90.048600 0.155754 -72.673000 5.348090 -0.000007 -0.000001 -68.299400 39.824000 -12.871800 24.328600 0.000019 0.000005 0.472184 1.108350 -23.074900 22.291600 -0.000001 0.000005 5.234460 5.488440 -6.074720 12.994500 -0.242716 -4.980390 87.576900 6.836190 -70.429700 -5.348130 -0.000001 -0.000004 -63.914100 26.568500 -19.142800 -24.328900 0.000322 -0.000009 3.246490 6.056620 -28.275300 -22.291500 -0.000108 -0.000004 3.872340 5.313630 -0.311375 -2.192480 -6.469440 -0.000000 -175.307000 -6.062260 -1.824710 39.081100 -0.000007 -0.000012 -0.119860 0.286195 22.724200 40.985400 -0.000006 -0.000013 -0.661082 2.611080 -66.872500 11.754300 -0.000000 0.000003 -0.000056 -0.000621 -16.601600 -2.192510 6.469440 -0.000001 179.825000 12.786100 -179.934000 -39.081100 -0.002282 -0.040193 -0.018773 0.061001 19.909900 -40.985400 0.000008 0.000006 4.123120 7.264980 -66.406200 -11.754300 -0.000006 -0.000006 -0.007923 -0.087400 -20.132000
0.000000 0.000000 0.000000 0.000000 0.000000 -0.000000 -0.939607 92.249400 -0.089016 88.061200 -1.791850 4.146440 15.735700 0.000005 -0.000001 87.846300 85.415100 -87.345600 8.984550 -0.406207 -0.000000 1.399070 -0.372236 1.005050 16.377300 -0.000001 -0.000001 4.494240 -1.442540 -0.020495 6.456720 -0.000001 -0.000000 0.386153 0.597741 -5.064620 12.994200 -0.242716 4.980390 -90.079100 0.251976 -72.564800 5.348090 -0.000007 -0.000001 -68.311500 39.692700 -12.848300 24.328600 0.000019 0.000005 0.502806 1.181500 -23.053000 22.291600 -0.000001 0.000005 5.096460 5.486290 -5.990940 12.994500 -0.242716 -4.980390 87.576100 6.755970 -70.210100 -5.348130 -0.000001 -0.000004 -62.193700 22.329000 -22.357100 -24.328900 0.000322 -0.000009 3.926800 5.732730 -34.499000 -22.291500 -0.000108 -0.000004 7.599270 5.332560 -0.852202 -2.192480 -6.469440 -0.000000 -175.377000 -6.242740 -1.842160 39.081100 -0.000007 -0.000012 -0.116293 0.277908 22.707500 40.985400 -0.000006 -0.000013 -0.637095 2.364560 -66.847400 11.754300 -0.000000 0.000003 -0.000041 -0.000474 -16.596000 -2.192510 6.469440 -0.000001 179.808000 12.452500 179.924000 -39.081100 -0.002282 -0.040193 -0.021027 0.067181 19.922100 -40.985400 0.000008 0.000006 4.033230 7.402340 -66.292200 -11.754300 -0.000006 -0.000006 -0.008089 -0.088760 -20.187500
0.000000 0.000000 0.000000 0.000000 0.000000 -0.000000 -0.849090 92.265200 -0.196263 88.043100 -2.148170 4.168710 15.735700 0.000005 -0.000001 88.029000 85.427200 -87.534800 8.984550 -0.406207 -0.000000 1.375770 -0.341950 0.991638 16.377300 -0.000001 -0.000001 4.546360 -1.097250 -0.267449 6.456720 -0.000001 -0.000000 0.265045 1.141920 -6.038730 12.994200 -0.242716 4.980390 -90.088100 0.279903 -72.530900 5.348090 -0.000007 -0.000001 -68.311700 39.707000 -12.918400 24.328600 0.000019 0.000005 0.570586 1.348150 -22.940600 22.291600 -0.000001 0.000005 5.178570 5.486640 -6.004260 12.994500 -0.242716 -4.980390 87.607200 6.618840 -70.073300 -5.348130 -0.000001 -0.000004 -60.762200 17.400500 -26.100300 -24.328900 0.000322 -0.000009 5.723160 6.351540 -42.170000 -22.291500 -0.000108 -0.000004 11.447400 5.344720 -1.215070 -2.192480 -6.469440 -0.000000 -175.438000 -6.370360 -1.826580 39.081100 -0.000007 -0.000012 -0.114704 0.274596 22.671300 40.985400 -0.000006 -0.000013 -0.619224 2.112920 -66.789700 11.754300 -0.000000 0.000003 -0.000054 -0.000609 -16.601200 -2.192510 6.469440 -0.000001 179.777000 12.201800 179.865000 -39.081100 -0.002282 -0.040193 -0.022024 0.070109 19.876000 -40.985400 0.000008 0.000006 3.923440 7.544470 -66.148500 -11.754300 -0.000006 -0.000006 -0.008109 -0.088923 -20.194200
